<svg viewBox="0 0 512 512" xml:space="preserve" xmlns="http://www.w3.org/2000/svg" enable-background="new 0 0 512 512"><circle cx="225.741" cy="188.672" r="10.087" fill="#131c61" class="fill-000000"></circle><circle cx="286.26" cy="188.672" r="10.087" fill="#131c61" class="fill-000000"></circle><path d="M298.08 149.958a5 5 0 0 1-3.535-8.535l19.597-19.598a5 5 0 0 1 7.07 7.071l-19.597 19.598a4.983 4.983 0 0 1-3.535 1.464zM213.92 149.958a4.987 4.987 0 0 1-3.536-1.464l-19.598-19.598a5 5 0 1 1 7.071-7.071l19.598 19.598a5 5 0 0 1-3.535 8.535zM315.972 287.266a4.98 4.98 0 0 1-3.535-1.465l-19.598-19.598a4.998 4.998 0 0 1 0-7.07 4.998 4.998 0 0 1 7.07 0l19.598 19.598a4.998 4.998 0 0 1-3.535 8.535zM196.084 287.24a4.998 4.998 0 0 1-3.536-8.535l19.598-19.598a5 5 0 1 1 7.071 7.07l-19.598 19.598a4.978 4.978 0 0 1-3.535 1.465z" fill="#131c61" class="fill-000000"></path><path d="M276.925 294.542h-41.849c-13.468 0-24.424-10.957-24.424-24.425v-2.475h-18.537c-11.805 0-21.588-9.6-21.808-21.399-.107-5.772 2.109-11.269 6.24-15.478a22.632 22.632 0 0 1 13.93-6.648v-35.448c0-36.129 29.394-65.523 65.523-65.523s65.523 29.394 65.523 65.523v35.448a22.634 22.634 0 0 1 13.931 6.648c4.131 4.209 6.347 9.706 6.239 15.477-.22 11.8-10.002 21.399-21.808 21.399h-18.537v2.475c.001 13.469-10.955 24.426-24.423 24.426zm-84.37-60.523c-3.298 0-6.532 1.368-8.872 3.752-2.236 2.278-3.436 5.221-3.379 8.286.119 6.389 5.417 11.586 11.81 11.586h23.537a5 5 0 0 1 5 5v7.475c0 7.954 6.471 14.425 14.424 14.425h41.849c7.953 0 14.424-6.471 14.424-14.425v-7.475a5 5 0 0 1 5-5h23.537c6.393 0 11.69-5.197 11.81-11.585.057-3.066-1.143-6.009-3.378-8.287-2.341-2.384-5.575-3.752-8.873-3.752h-2.921a5 5 0 0 1-5-5V188.67c0-30.615-24.907-55.523-55.523-55.523-30.616 0-55.523 24.908-55.523 55.523v40.349a5 5 0 0 1-5 5h-2.922zM450 412.458H62c-17.093 0-31-13.906-31-31v-18c0-17.094 13.907-31 31-31h144a5 5 0 0 1 5 5v15h90v-15a5 5 0 0 1 5-5h144c17.094 0 31 13.906 31 31v18c0 17.094-13.906 31-31 31zm-388-70c-11.58 0-21 9.421-21 21v18c0 11.579 9.42 21 21 21h388c11.579 0 21-9.421 21-21v-18c0-11.579-9.421-21-21-21H311v15a5 5 0 0 1-5 5H206a5 5 0 0 1-5-5v-15H62z" fill="#131c61" class="fill-000000"></path><path d="M446.477 342.458a5 5 0 0 1-5-5V147.28c0-20.809-16.93-37.738-37.738-37.738H108.262c-20.809 0-37.738 16.929-37.738 37.738v190.178a5 5 0 1 1-10 0V147.28c0-26.323 21.415-47.738 47.738-47.738h295.477c26.323 0 47.738 21.416 47.738 47.738v190.178a5 5 0 0 1-5 5z" fill="#131c61" class="fill-000000"></path><path d="M445.091 312.458H66.909a5 5 0 1 1 0-10h378.182c2.762 0 5 2.238 5 5s-2.238 5-5 5z" fill="#131c61" class="fill-000000"></path></svg>