<svg viewBox="0 0 2048 2048" xml:space="preserve" xmlns="http://www.w3.org/2000/svg" enable-background="new 0 0 2048 2048"><path d="m1150.09 987.08 607.32 607.32c46.28 46.28 46.06 121.79-1.7 166.53-22.11 20.71-50.39 31.06-78.67 31.06-29.46 0-58.93-11.23-81.41-33.72L987.26 1149.9l162.83-162.82z" fill="#a1a814" class="fill-465a65"></path><path d="M1755.71 1760.94c-22.11 20.72-50.38 31.06-78.67 31.06-29.46 0-58.92-11.23-81.41-33.71l-53.83-53.83 162.83-162.84 52.79 52.79c46.27 46.27 46.05 121.79-1.71 166.53z" fill="#094c70" class="fill-33444d"></path><circle cx="813.05" cy="812.88" r="556.88" fill="#094c70" class="fill-33444d"></circle><circle cx="813.05" cy="812.88" r="425.81" fill="#d6f4ff" class="fill-d6f4ff"></circle><path d="M1014 887.21h-77.17c-13.27 0-24.02-10.76-24.02-24.03s10.76-24.02 24.02-24.02H1014c13.27 0 24.02 10.76 24.02 24.02s-10.76 24.03-24.02 24.03zM1003.5 787.87h-67.94c-13.27 0-24.02-10.76-24.02-24.02 0-13.27 10.76-24.02 24.02-24.02h57.98l37.26-37.26c9.38-9.38 24.59-9.38 33.98 0 9.38 9.38 9.38 24.59 0 33.98l-44.3 44.3a24.049 24.049 0 0 1-16.98 7.02zM1035.85 1031.11c-6.15 0-12.3-2.35-16.99-7.04L981.6 986.8h-81.16c-13.27 0-24.02-10.76-24.02-24.02s10.76-24.02 24.02-24.02h91.11c6.37 0 12.48 2.53 16.99 7.04l44.3 44.31c9.38 9.38 9.38 24.59 0 33.98-4.69 4.68-10.84 7.02-16.99 7.02zM689.28 887.21h-77.17c-13.27 0-24.02-10.76-24.02-24.03s10.76-24.02 24.02-24.02h77.17c13.27 0 24.02 10.76 24.02 24.02s-10.75 24.03-24.02 24.03zM690.55 787.87h-67.94c-6.37 0-12.48-2.53-16.99-7.04l-44.3-44.3c-9.38-9.38-9.38-24.59 0-33.98 9.38-9.38 24.59-9.38 33.98 0l37.26 37.26h57.98c13.27 0 24.02 10.76 24.02 24.02.01 13.28-10.75 24.04-24.01 24.04zM590.26 1031.11c-6.15 0-12.29-2.35-16.99-7.03-9.38-9.38-9.38-24.59 0-33.98l44.3-44.31a24.024 24.024 0 0 1 16.99-7.04h91.13c13.27 0 24.02 10.76 24.02 24.02s-10.76 24.02-24.02 24.02H644.5l-37.26 37.27c-4.69 4.71-10.83 7.05-16.98 7.05z" fill="#220b5c" class="fill-463d43"></path><path d="m955.05 759.01-15.33 142.71c-6.87 63.89-49.14 113.91-102.65 125.6a112.58 112.58 0 0 1-24.02 2.59c-8.2 0-16.24-.89-24.02-2.59-53.49-11.69-95.77-61.71-102.64-125.6l-15.34-142.71c-1.64-15.31-1.17-30.84 1.85-45.87 11.88-59.21 58.23-103.86 114.11-103.86h52.08c55.87 0 102.22 44.65 114.11 103.86 3.02 15.03 3.5 30.57 1.85 45.87z" fill="#2443bf" class="fill-f35232"></path><path d="M894.99 631.96a82.7 82.7 0 0 0 1.21-14.17c0-45.92-37.22-83.14-83.14-83.14s-83.14 37.22-83.14 83.14c0 4.83.42 9.57 1.21 14.17h163.86z" fill="#094a07" class="fill-3b3438"></path><path d="M837.08 764.35v262.97a112.58 112.58 0 0 1-24.02 2.59c-8.2 0-16.24-.89-24.02-2.59V764.35c0-.42.01-.85.03-1.27.66-12.67 11.15-22.75 23.99-22.75 12.85 0 23.33 10.08 23.99 22.75.02.42.03.85.03 1.27z" fill="#a1a814" class="fill-e04b2d"></path><path d="M672.91 713.14c11.88-59.21 58.23-103.86 114.11-103.86h52.08c55.87 0 102.22 44.65 114.11 103.86-37.41 32.72-88.78 51.4-140.15 51.2-51.37.2-102.74-18.47-140.15-51.2z" fill="#220b5c" class="fill-463d43"></path></svg>