<?xml version="1.0" ?><svg id="Layer_1" style="enable-background:new 0 0 2048 2048;" version="1.1" viewBox="0 0 2048 2048" xml:space="preserve" xmlns="http://www.w3.org/2000/svg" xmlns:xlink="http://www.w3.org/1999/xlink"><style type="text/css">
	.st0{fill:#465A65;}
	.st1{fill:#33444D;}
	.st2{fill:#D6F4FF;}
	.st3{fill:#463D43;}
	.st4{fill:#F35232;}
	.st5{fill:#3B3438;}
	.st6{fill:#E04B2D;}
</style><g><path class="st0" d="M1150.09,987.08l607.32,607.32c46.28,46.28,46.06,121.79-1.7,166.53c-22.11,20.71-50.39,31.06-78.67,31.06   c-29.46,0-58.93-11.23-81.41-33.72l-608.37-608.37L1150.09,987.08z"/><path class="st1" d="M1755.71,1760.94c-22.11,20.72-50.38,31.06-78.67,31.06c-29.46,0-58.92-11.23-81.41-33.71l-53.83-53.83   l162.83-162.84l52.79,52.79C1803.69,1640.68,1803.47,1716.2,1755.71,1760.94z"/><circle class="st1" cx="813.05" cy="812.88" r="556.88"/><circle class="st2" cx="813.05" cy="812.88" r="425.81"/><g><g><g><g><path class="st3" d="M1014,887.21h-77.17c-13.27,0-24.02-10.76-24.02-24.03s10.76-24.02,24.02-24.02H1014       c13.27,0,24.02,10.76,24.02,24.02S1027.26,887.21,1014,887.21z"/></g><g><path class="st3" d="M1003.5,787.87h-67.94c-13.27,0-24.02-10.76-24.02-24.02c0-13.27,10.76-24.02,24.02-24.02h57.98       l37.26-37.26c9.38-9.38,24.59-9.38,33.98,0c9.38,9.38,9.38,24.59,0,33.98l-44.3,44.3       C1015.98,785.34,1009.87,787.87,1003.5,787.87z"/></g><g><path class="st3" d="M1035.85,1031.11c-6.15,0-12.3-2.35-16.99-7.04l-37.26-37.27h-81.16c-13.27,0-24.02-10.76-24.02-24.02       s10.76-24.02,24.02-24.02h91.11c6.37,0,12.48,2.53,16.99,7.04l44.3,44.31c9.38,9.38,9.38,24.59,0,33.98       C1048.15,1028.77,1042,1031.11,1035.85,1031.11z"/></g></g></g><g><g><g><path class="st3" d="M689.28,887.21h-77.17c-13.27,0-24.02-10.76-24.02-24.03s10.76-24.02,24.02-24.02h77.17       c13.27,0,24.02,10.76,24.02,24.02S702.55,887.21,689.28,887.21z"/></g><g><path class="st3" d="M690.55,787.87h-67.94c-6.37,0-12.48-2.53-16.99-7.04l-44.3-44.3c-9.38-9.38-9.38-24.59,0-33.98       c9.38-9.38,24.59-9.38,33.98,0l37.26,37.26h57.98c13.27,0,24.02,10.76,24.02,24.02C714.57,777.11,703.81,787.87,690.55,787.87z       "/></g><g><path class="st3" d="M590.26,1031.11c-6.15,0-12.29-2.35-16.99-7.03c-9.38-9.38-9.38-24.59,0-33.98l44.3-44.31       c4.51-4.51,10.62-7.04,16.99-7.04h91.13c13.27,0,24.02,10.76,24.02,24.02s-10.76,24.02-24.02,24.02H644.5l-37.26,37.27       C602.55,1028.77,596.41,1031.11,590.26,1031.11z"/></g></g></g><path class="st4" d="M955.05,759.01l-15.33,142.71c-6.87,63.89-49.14,113.91-102.65,125.6c-7.79,1.7-15.83,2.59-24.02,2.59    c-8.2,0-16.24-0.89-24.02-2.59c-53.49-11.69-95.77-61.71-102.64-125.6l-15.34-142.71c-1.64-15.31-1.17-30.84,1.85-45.87    c11.88-59.21,58.23-103.86,114.11-103.86h52.08c55.87,0,102.22,44.65,114.11,103.86C956.22,728.17,956.7,743.71,955.05,759.01z"/><path class="st5" d="M894.99,631.96c0.8-4.6,1.21-9.34,1.21-14.17c0-45.92-37.22-83.14-83.14-83.14s-83.14,37.22-83.14,83.14    c0,4.83,0.42,9.57,1.21,14.17H894.99z"/><g><g><path class="st6" d="M837.08,764.35v262.97c-7.79,1.7-15.83,2.59-24.02,2.59c-8.2,0-16.24-0.89-24.02-2.59V764.35      c0-0.42,0.01-0.85,0.03-1.27c0.66-12.67,11.15-22.75,23.99-22.75c12.85,0,23.33,10.08,23.99,22.75      C837.07,763.5,837.08,763.93,837.08,764.35z"/></g></g><path class="st3" d="M672.91,713.14c11.88-59.21,58.23-103.86,114.11-103.86h52.08c55.87,0,102.22,44.65,114.11,103.86l0,0    c-37.41,32.72-88.78,51.4-140.15,51.2C761.69,764.54,710.32,745.87,672.91,713.14L672.91,713.14z"/></g></g></svg>